<svg width="1802" height="329" viewBox="0 0 1802 329" fill="none" xmlns="http://www.w3.org/2000/svg">
<g id="Group 1142812903">
<g id="Group 1142812893">
<g id="Group 1142812891">
<g id="Rectangle 34624558">
<path d="M0.0205078 129H1800.02V329H0.0205078V129Z" fill="url(#paint0_linear_21609_15120)"/>
<path d="M0.0205078 129H1800.02L1710.02 29.5H91.1455L0.0205078 129Z" fill="#0A8039"/>
<path d="M1799.02 130V328H1.02051V130H1799.02ZM1709.58 30.5L1797.77 128H2.29297L91.5859 30.5H1709.58Z" stroke="url(#paint1_linear_21609_15120)" stroke-opacity="0.72" stroke-width="2"/>
</g>
<path id="Rectangle 34624561" d="M1767.02 160V328H33.0215V160H1767.02Z" stroke="url(#paint2_linear_21609_15120)" stroke-opacity="0.24" stroke-width="2"/>
<path id="Rectangle 34624559" d="M450.022 128.25H2.27051L91.708 30.5H495.866" stroke="url(#paint3_linear_21609_15120)" stroke-width="2"/>
<path id="Rectangle 34624560" d="M1350.86 128.25L1798.9 129L1709.46 30.5H1305.02" stroke="url(#paint4_linear_21609_15120)" stroke-width="2"/>
<g id="Mask group">
<mask id="mask0_21609_15120" style="mask-type:alpha" maskUnits="userSpaceOnUse" x="4" y="29" width="1793" height="99">
<g id="Rectangle 34624558_2">
<path d="M4.52051 128H1796.65L1707.04 29H95.2468L4.52051 128Z" fill="#0A4580"/>
<path d="M1706.6 30L1794.39 127H6.79395L95.6875 30H1706.6Z" stroke="url(#paint5_linear_21609_15120)" stroke-opacity="0.72" stroke-width="2"/>
</g>
</mask>
<g mask="url(#mask0_21609_15120)">
<g id="Union">
<path d="M-79.2469 144L40.4829 15.1029L39.8753 14L-79.8545 142.897L-79.2469 144Z" fill="white" fill-opacity="0.06"/>
<path d="M-68.2378 144L51.492 15.1029L50.8844 14L-68.8454 142.897L-68.2378 144Z" fill="white" fill-opacity="0.06"/>
<path d="M62.5065 15.1029L-57.2232 144L-57.8308 142.897L61.899 14L62.5065 15.1029Z" fill="white" fill-opacity="0.06"/>
<path d="M-46.2195 144L73.5103 15.1029L72.9027 14L-46.8271 142.897L-46.2195 144Z" fill="white" fill-opacity="0.06"/>
<path d="M84.5194 15.1029L-35.2104 144L-35.8179 142.897L83.9118 14L84.5194 15.1029Z" fill="white" fill-opacity="0.06"/>
<path d="M-24.2012 144L95.5286 15.1029L94.921 14L-24.8088 142.897L-24.2012 144Z" fill="white" fill-opacity="0.06"/>
<path d="M106.543 15.1029L-13.1867 144L-13.7943 142.897L105.936 14L106.543 15.1029Z" fill="white" fill-opacity="0.06"/>
<path d="M-2.17753 144L117.552 15.1029L116.945 14L-2.78511 142.897L-2.17753 144Z" fill="white" fill-opacity="0.06"/>
<path d="M128.561 15.1029L8.83161 144L8.22403 142.897L127.954 14L128.561 15.1029Z" fill="white" fill-opacity="0.06"/>
<path d="M19.8354 144L139.565 15.1029L138.958 14L19.2278 142.897L19.8354 144Z" fill="white" fill-opacity="0.06"/>
<path d="M150.58 15.1029L30.8499 144L30.2423 142.897L149.972 14L150.58 15.1029Z" fill="white" fill-opacity="0.06"/>
<path d="M41.859 144L161.589 15.1029L160.981 14L41.2514 142.897L41.859 144Z" fill="white" fill-opacity="0.06"/>
<path d="M172.598 15.1029L52.8682 144L52.2606 142.897L171.99 14L172.598 15.1029Z" fill="white" fill-opacity="0.06"/>
<path d="M63.8827 144L183.612 15.1029L183.005 14L63.2751 142.897L63.8827 144Z" fill="white" fill-opacity="0.06"/>
<path d="M194.616 15.1029L74.8864 144L74.2789 142.897L194.009 14L194.616 15.1029Z" fill="white" fill-opacity="0.06"/>
<path d="M85.8956 144L205.625 15.1029L205.018 14L85.288 142.897L85.8956 144Z" fill="white" fill-opacity="0.06"/>
<path d="M216.634 15.1029L96.9047 144L96.2971 142.897L216.027 14L216.634 15.1029Z" fill="white" fill-opacity="0.06"/>
<path d="M107.919 144L227.649 15.1029L227.041 14L107.312 142.897L107.919 144Z" fill="white" fill-opacity="0.06"/>
<path d="M238.658 15.1029L118.928 144L118.321 142.897L238.051 14L238.658 15.1029Z" fill="white" fill-opacity="0.06"/>
<path d="M129.938 144L249.667 15.1029L249.06 14L129.33 142.897L129.938 144Z" fill="white" fill-opacity="0.06"/>
<path d="M260.676 15.1029L140.947 144L140.339 142.897L260.069 14L260.676 15.1029Z" fill="white" fill-opacity="0.06"/>
<path d="M151.956 144L271.686 15.1029L271.078 14L151.348 142.897L151.956 144Z" fill="white" fill-opacity="0.06"/>
<path d="M282.695 15.1029L162.965 144L162.357 142.897L282.087 14L282.695 15.1029Z" fill="white" fill-opacity="0.06"/>
<path d="M173.974 144L293.704 15.1029L293.096 14L173.367 142.897L173.974 144Z" fill="white" fill-opacity="0.06"/>
<path d="M304.718 15.1029L184.989 144L184.381 142.897L304.111 14L304.718 15.1029Z" fill="white" fill-opacity="0.06"/>
<path d="M195.992 144L315.722 15.1029L315.115 14L195.385 142.897L195.992 144Z" fill="white" fill-opacity="0.06"/>
<path d="M326.731 15.1029L207.002 144L206.394 142.897L326.124 14L326.731 15.1029Z" fill="white" fill-opacity="0.06"/>
<path d="M218.011 144L337.74 15.1029L337.133 14L217.403 142.897L218.011 144Z" fill="white" fill-opacity="0.06"/>
<path d="M348.755 15.1029L229.025 144L228.418 142.897L348.147 14L348.755 15.1029Z" fill="white" fill-opacity="0.06"/>
<path d="M240.034 144L359.764 15.1029L359.157 14L239.427 142.897L240.034 144Z" fill="white" fill-opacity="0.06"/>
<path d="M370.768 15.1029L251.038 144L250.431 142.897L370.16 14L370.768 15.1029Z" fill="white" fill-opacity="0.06"/>
<path d="M262.053 144L381.782 15.1029L381.175 14L261.445 142.897L262.053 144Z" fill="white" fill-opacity="0.06"/>
<path d="M392.792 15.1029L273.062 144L272.454 142.897L392.184 14L392.792 15.1029Z" fill="white" fill-opacity="0.06"/>
<path d="M284.071 144L403.801 15.1029L403.193 14L283.463 142.897L284.071 144Z" fill="white" fill-opacity="0.06"/>
<path d="M414.81 15.1029L295.08 144L294.472 142.897L414.202 14L414.81 15.1029Z" fill="white" fill-opacity="0.06"/>
<path d="M306.095 144L425.824 15.1029L425.217 14L305.487 142.897L306.095 144Z" fill="white" fill-opacity="0.06"/>
<path d="M436.828 15.1029L317.098 144L316.491 142.897L436.221 14L436.828 15.1029Z" fill="white" fill-opacity="0.06"/>
<path d="M328.107 144L447.837 15.1029L447.23 14L327.5 142.897L328.107 144Z" fill="white" fill-opacity="0.06"/>
<path d="M458.846 15.1029L339.117 144L338.509 142.897L458.239 14L458.846 15.1029Z" fill="white" fill-opacity="0.06"/>
<path d="M350.131 144L469.861 15.1029L469.253 14L349.524 142.897L350.131 144Z" fill="white" fill-opacity="0.06"/>
<path d="M480.87 15.1029L361.14 144L360.533 142.897L480.262 14L480.87 15.1029Z" fill="white" fill-opacity="0.06"/>
<path d="M372.144 144L491.874 15.1029L491.266 14L371.536 142.897L372.144 144Z" fill="white" fill-opacity="0.06"/>
<path d="M502.888 15.1029L383.159 144L382.551 142.897L502.281 14L502.888 15.1029Z" fill="white" fill-opacity="0.06"/>
<path d="M394.168 144L513.897 15.1029L513.29 14L393.56 142.897L394.168 144Z" fill="white" fill-opacity="0.06"/>
<path d="M524.907 15.1029L405.177 144L404.569 142.897L524.299 14L524.907 15.1029Z" fill="white" fill-opacity="0.06"/>
<path d="M416.186 144L535.916 15.1029L535.308 14L415.578 142.897L416.186 144Z" fill="white" fill-opacity="0.06"/>
<path d="M546.93 15.1029L427.201 144L426.593 142.897L546.323 14L546.93 15.1029Z" fill="white" fill-opacity="0.06"/>
<path d="M438.204 144L557.934 15.1029L557.326 14L437.597 142.897L438.204 144Z" fill="white" fill-opacity="0.06"/>
<path d="M568.943 15.1029L449.213 144L448.606 142.897L568.336 14L568.943 15.1029Z" fill="white" fill-opacity="0.06"/>
<path d="M460.228 144L579.958 15.1029L579.35 14L459.62 142.897L460.228 144Z" fill="white" fill-opacity="0.06"/>
<path d="M590.967 15.1029L471.237 144L470.63 142.897L590.359 14L590.967 15.1029Z" fill="white" fill-opacity="0.06"/>
<path d="M482.246 144L601.976 15.1029L601.368 14L481.639 142.897L482.246 144Z" fill="white" fill-opacity="0.06"/>
<path d="M612.98 15.1029L493.25 144L492.642 142.897L612.372 14L612.98 15.1029Z" fill="white" fill-opacity="0.06"/>
<path d="M504.265 144L623.994 15.1029L623.387 14L503.657 142.897L504.265 144Z" fill="white" fill-opacity="0.06"/>
<path d="M635.003 15.1029L515.274 144L514.666 142.897L634.396 14L635.003 15.1029Z" fill="white" fill-opacity="0.06"/>
<path d="M526.283 144L646.013 15.1029L645.405 14L525.675 142.897L526.283 144Z" fill="white" fill-opacity="0.06"/>
<path d="M657.022 15.1029L537.292 144L536.684 142.897L656.414 14L657.022 15.1029Z" fill="white" fill-opacity="0.06"/>
<path d="M548.307 144L668.036 15.1029L667.429 14L547.699 142.897L548.307 144Z" fill="white" fill-opacity="0.06"/>
<path d="M679.04 15.1029L559.31 144L558.703 142.897L678.432 14L679.04 15.1029Z" fill="white" fill-opacity="0.06"/>
<path d="M570.319 144L690.049 15.1029L689.442 14L569.712 142.897L570.319 144Z" fill="white" fill-opacity="0.06"/>
<path d="M701.064 15.1029L581.334 144L580.726 142.897L700.456 14L701.064 15.1029Z" fill="white" fill-opacity="0.06"/>
<path d="M592.343 144L712.073 15.1029L711.465 14L591.735 142.897L592.343 144Z" fill="white" fill-opacity="0.06"/>
<path d="M723.082 15.1029L603.352 144L602.745 142.897L722.474 14L723.082 15.1029Z" fill="white" fill-opacity="0.06"/>
<path d="M614.356 144L734.086 15.1029L733.478 14L613.748 142.897L614.356 144Z" fill="white" fill-opacity="0.06"/>
<path d="M745.1 15.1029L625.37 144L624.763 142.897L744.493 14L745.1 15.1029Z" fill="white" fill-opacity="0.06"/>
<path d="M636.38 144L756.109 15.1029L755.502 14L635.772 142.897L636.38 144Z" fill="white" fill-opacity="0.06"/>
<path d="M767.119 15.1029L647.389 144L646.781 142.897L766.511 14L767.119 15.1029Z" fill="white" fill-opacity="0.06"/>
<path d="M658.398 144L778.128 15.1029L777.52 14L657.79 142.897L658.398 144Z" fill="white" fill-opacity="0.06"/>
<path d="M789.137 15.1029L669.407 144L668.799 142.897L788.529 14L789.137 15.1029Z" fill="white" fill-opacity="0.06"/>
<path d="M680.416 144L800.146 15.1029L799.538 14L679.809 142.897L680.416 144Z" fill="white" fill-opacity="0.06"/>
<path d="M811.155 15.1029L691.425 144L690.818 142.897L810.547 14L811.155 15.1029Z" fill="white" fill-opacity="0.06"/>
<path d="M702.44 144L822.17 15.1029L821.562 14L701.832 142.897L702.44 144Z" fill="white" fill-opacity="0.06"/>
<path d="M833.179 15.1029L713.449 144L712.841 142.897L832.571 14L833.179 15.1029Z" fill="white" fill-opacity="0.06"/>
<path d="M724.458 144L844.188 15.1029L843.58 14L723.851 142.897L724.458 144Z" fill="white" fill-opacity="0.06"/>
<path d="M855.192 15.1029L735.462 144L734.854 142.897L854.584 14L855.192 15.1029Z" fill="white" fill-opacity="0.06"/>
<path d="M746.476 144L866.206 15.1029L865.599 14L745.869 142.897L746.476 144Z" fill="white" fill-opacity="0.06"/>
<path d="M877.215 15.1029L757.486 144L756.878 142.897L876.608 14L877.215 15.1029Z" fill="white" fill-opacity="0.06"/>
<path d="M768.495 144L888.224 15.1029L887.617 14L767.887 142.897L768.495 144Z" fill="white" fill-opacity="0.06"/>
<path d="M899.239 15.1029L779.509 144L778.902 142.897L898.631 14L899.239 15.1029Z" fill="white" fill-opacity="0.06"/>
<path d="M790.513 144L910.243 15.1029L909.635 14L789.905 142.897L790.513 144Z" fill="white" fill-opacity="0.06"/>
<path d="M921.252 15.1029L801.522 144L800.914 142.897L920.644 14L921.252 15.1029Z" fill="white" fill-opacity="0.06"/>
<path d="M812.531 144L932.261 15.1029L931.653 14L811.924 142.897L812.531 144Z" fill="white" fill-opacity="0.06"/>
<path d="M943.276 15.1029L823.546 144L822.938 142.897L942.668 14L943.276 15.1029Z" fill="white" fill-opacity="0.06"/>
<path d="M834.555 144L954.285 15.1029L953.677 14L833.947 142.897L834.555 144Z" fill="white" fill-opacity="0.06"/>
<path d="M966.094 15.1029L846.364 144L845.756 142.897L965.486 14L966.094 15.1029Z" fill="white" fill-opacity="0.06"/>
<path d="M857.373 144L977.103 15.1029L976.495 14L856.766 142.897L857.373 144Z" fill="white" fill-opacity="0.06"/>
<path d="M988.117 15.1029L868.388 144L867.78 142.897L987.51 14L988.117 15.1029Z" fill="white" fill-opacity="0.06"/>
<path d="M879.391 144L999.121 15.1029L998.514 14L878.784 142.897L879.391 144Z" fill="white" fill-opacity="0.06"/>
<path d="M1010.13 15.1029L890.401 144L889.793 142.897L1009.52 14L1010.13 15.1029Z" fill="white" fill-opacity="0.06"/>
<path d="M901.41 144L1021.14 15.1029L1020.53 14L900.802 142.897L901.41 144Z" fill="white" fill-opacity="0.06"/>
<path d="M1032.15 15.1029L912.424 144L911.817 142.897L1031.55 14L1032.15 15.1029Z" fill="white" fill-opacity="0.06"/>
<path d="M923.433 144L1043.16 15.1029L1042.56 14L922.826 142.897L923.433 144Z" fill="white" fill-opacity="0.06"/>
<path d="M1054.17 15.1029L934.443 144L933.835 142.897L1053.56 14L1054.17 15.1029Z" fill="white" fill-opacity="0.06"/>
<path d="M945.446 144L1065.18 15.1029L1064.57 14L944.839 142.897L945.446 144Z" fill="white" fill-opacity="0.06"/>
<path d="M1076.19 15.1029L956.461 144L955.853 142.897L1075.58 14L1076.19 15.1029Z" fill="white" fill-opacity="0.06"/>
<path d="M967.47 144L1087.2 15.1029L1086.59 14L966.862 142.897L967.47 144Z" fill="white" fill-opacity="0.06"/>
<path d="M1098.21 15.1029L978.479 144L977.871 142.897L1097.6 14L1098.21 15.1029Z" fill="white" fill-opacity="0.06"/>
<path d="M989.494 144L1109.22 15.1029L1108.62 14L988.886 142.897L989.494 144Z" fill="white" fill-opacity="0.06"/>
<path d="M1120.23 15.1029L1000.5 144L999.89 142.897L1119.62 14L1120.23 15.1029Z" fill="white" fill-opacity="0.06"/>
<path d="M1011.51 144L1131.24 15.1029L1130.63 14L1010.9 142.897L1011.51 144Z" fill="white" fill-opacity="0.06"/>
<path d="M1142.25 15.1029L1022.52 144L1021.91 142.897L1141.64 14L1142.25 15.1029Z" fill="white" fill-opacity="0.06"/>
<path d="M1033.53 144L1153.26 15.1029L1152.65 14L1032.92 142.897L1033.53 144Z" fill="white" fill-opacity="0.06"/>
<path d="M1164.27 15.1029L1044.54 144L1043.93 142.897L1163.66 14L1164.27 15.1029Z" fill="white" fill-opacity="0.06"/>
<path d="M1055.55 144L1175.28 15.1029L1174.67 14L1054.94 142.897L1055.55 144Z" fill="white" fill-opacity="0.06"/>
<path d="M1186.29 15.1029L1066.56 144L1065.95 142.897L1185.68 14L1186.29 15.1029Z" fill="white" fill-opacity="0.06"/>
<path d="M1077.57 144L1197.3 15.1029L1196.69 14L1076.96 142.897L1077.57 144Z" fill="white" fill-opacity="0.06"/>
<path d="M1208.31 15.1029L1088.58 144L1087.97 142.897L1207.7 14L1208.31 15.1029Z" fill="white" fill-opacity="0.06"/>
<path d="M1099.58 144L1219.31 15.1029L1218.71 14L1098.98 142.897L1099.58 144Z" fill="white" fill-opacity="0.06"/>
<path d="M1230.33 15.1029L1110.6 144L1109.99 142.897L1229.72 14L1230.33 15.1029Z" fill="white" fill-opacity="0.06"/>
<path d="M1121.6 144L1241.33 15.1029L1240.73 14L1121 142.897L1121.6 144Z" fill="white" fill-opacity="0.06"/>
<path d="M1252.34 15.1029L1132.61 144L1132 142.897L1251.73 14L1252.34 15.1029Z" fill="white" fill-opacity="0.06"/>
<path d="M1143.62 144L1263.35 15.1029L1262.74 14L1143.01 142.897L1143.62 144Z" fill="white" fill-opacity="0.06"/>
<path d="M1274.37 15.1029L1154.64 144L1154.03 142.897L1273.76 14L1274.37 15.1029Z" fill="white" fill-opacity="0.06"/>
<path d="M1165.65 144L1285.38 15.1029L1284.77 14L1165.04 142.897L1165.65 144Z" fill="white" fill-opacity="0.06"/>
<path d="M1296.38 15.1029L1176.65 144L1176.04 142.897L1295.77 14L1296.38 15.1029Z" fill="white" fill-opacity="0.06"/>
<path d="M1187.66 144L1307.39 15.1029L1306.79 14L1187.06 142.897L1187.66 144Z" fill="white" fill-opacity="0.06"/>
<path d="M1318.4 15.1029L1198.67 144L1198.07 142.897L1317.79 14L1318.4 15.1029Z" fill="white" fill-opacity="0.06"/>
<path d="M1209.68 144L1329.41 15.1029L1328.8 14L1209.07 142.897L1209.68 144Z" fill="white" fill-opacity="0.06"/>
<path d="M1340.42 15.1029L1220.69 144L1220.08 142.897L1339.81 14L1340.42 15.1029Z" fill="white" fill-opacity="0.06"/>
<path d="M1231.71 144L1351.44 15.1029L1350.83 14L1231.1 142.897L1231.71 144Z" fill="white" fill-opacity="0.06"/>
<path d="M1362.44 15.1029L1242.71 144L1242.1 142.897L1361.83 14L1362.44 15.1029Z" fill="white" fill-opacity="0.06"/>
<path d="M1253.72 144L1373.45 15.1029L1372.84 14L1253.11 142.897L1253.72 144Z" fill="white" fill-opacity="0.06"/>
<path d="M1384.46 15.1029L1264.73 144L1264.12 142.897L1383.85 14L1384.46 15.1029Z" fill="white" fill-opacity="0.06"/>
<path d="M1275.74 144L1395.47 15.1029L1394.86 14L1275.13 142.897L1275.74 144Z" fill="white" fill-opacity="0.06"/>
<path d="M1406.48 15.1029L1286.75 144L1286.14 142.897L1405.87 14L1406.48 15.1029Z" fill="white" fill-opacity="0.06"/>
<path d="M1297.75 144L1417.48 15.1029L1416.88 14L1297.15 142.897L1297.75 144Z" fill="white" fill-opacity="0.06"/>
<path d="M1428.5 15.1029L1308.77 144L1308.16 142.897L1427.89 14L1428.5 15.1029Z" fill="white" fill-opacity="0.06"/>
<path d="M1319.78 144L1439.51 15.1029L1438.9 14L1319.17 142.897L1319.78 144Z" fill="white" fill-opacity="0.06"/>
<path d="M1450.52 15.1029L1330.79 144L1330.18 142.897L1449.91 14L1450.52 15.1029Z" fill="white" fill-opacity="0.06"/>
<path d="M1341.8 144L1461.53 15.1029L1460.92 14L1341.19 142.897L1341.8 144Z" fill="white" fill-opacity="0.06"/>
<path d="M1472.54 15.1029L1352.81 144L1352.2 142.897L1471.93 14L1472.54 15.1029Z" fill="white" fill-opacity="0.06"/>
<path d="M1363.82 144L1483.54 15.1029L1482.94 14L1363.21 142.897L1363.82 144Z" fill="white" fill-opacity="0.06"/>
<path d="M1494.55 15.1029L1374.82 144L1374.22 142.897L1493.95 14L1494.55 15.1029Z" fill="white" fill-opacity="0.06"/>
<path d="M1385.84 144L1505.57 15.1029L1504.96 14L1385.23 142.897L1385.84 144Z" fill="white" fill-opacity="0.06"/>
<path d="M1516.58 15.1029L1396.85 144L1396.24 142.897L1515.97 14L1516.58 15.1029Z" fill="white" fill-opacity="0.06"/>
<path d="M1407.86 144L1527.59 15.1029L1526.98 14L1407.25 142.897L1407.86 144Z" fill="white" fill-opacity="0.06"/>
<path d="M1538.59 15.1029L1418.86 144L1418.25 142.897L1537.98 14L1538.59 15.1029Z" fill="white" fill-opacity="0.06"/>
<path d="M1429.88 144L1549.61 15.1029L1549 14L1429.27 142.897L1429.88 144Z" fill="white" fill-opacity="0.06"/>
<path d="M1560.61 15.1029L1440.88 144L1440.28 142.897L1560.01 14L1560.61 15.1029Z" fill="white" fill-opacity="0.06"/>
<path d="M1451.89 144L1571.62 15.1029L1571.02 14L1451.29 142.897L1451.89 144Z" fill="white" fill-opacity="0.06"/>
<path d="M1582.63 15.1029L1462.9 144L1462.3 142.897L1582.03 14L1582.63 15.1029Z" fill="white" fill-opacity="0.06"/>
<path d="M1473.92 144L1593.65 15.1029L1593.04 14L1473.31 142.897L1473.92 144Z" fill="white" fill-opacity="0.06"/>
<path d="M1604.65 15.1029L1484.92 144L1484.31 142.897L1604.04 14L1604.65 15.1029Z" fill="white" fill-opacity="0.06"/>
<path d="M1495.93 144L1615.66 15.1029L1615.05 14L1495.32 142.897L1495.93 144Z" fill="white" fill-opacity="0.06"/>
<path d="M1626.67 15.1029L1506.94 144L1506.34 142.897L1626.07 14L1626.67 15.1029Z" fill="white" fill-opacity="0.06"/>
<path d="M1517.95 144L1637.68 15.1029L1637.08 14L1517.35 142.897L1517.95 144Z" fill="white" fill-opacity="0.06"/>
<path d="M1648.69 15.1029L1528.96 144L1528.36 142.897L1648.09 14L1648.69 15.1029Z" fill="white" fill-opacity="0.06"/>
<path d="M1539.97 144L1659.7 15.1029L1659.09 14L1539.36 142.897L1539.97 144Z" fill="white" fill-opacity="0.06"/>
<path d="M1670.71 15.1029L1550.98 144L1550.37 142.897L1670.1 14L1670.71 15.1029Z" fill="white" fill-opacity="0.06"/>
<path d="M1561.99 144L1681.72 15.1029L1681.11 14L1561.38 142.897L1561.99 144Z" fill="white" fill-opacity="0.06"/>
<path d="M1692.73 15.1029L1573 144L1572.39 142.897L1692.12 14L1692.73 15.1029Z" fill="white" fill-opacity="0.06"/>
<path d="M1584.01 144L1703.74 15.1029L1703.13 14L1583.4 142.897L1584.01 144Z" fill="white" fill-opacity="0.06"/>
<path d="M1714.75 15.1029L1595.02 144L1594.41 142.897L1714.14 14L1714.75 15.1029Z" fill="white" fill-opacity="0.06"/>
<path d="M1606.03 144L1725.76 15.1029L1725.15 14L1605.42 142.897L1606.03 144Z" fill="white" fill-opacity="0.06"/>
<path d="M1736.77 15.1029L1617.04 144L1616.43 142.897L1736.16 14L1736.77 15.1029Z" fill="white" fill-opacity="0.06"/>
<path d="M1628.05 144L1747.78 15.1029L1747.17 14L1627.44 142.897L1628.05 144Z" fill="white" fill-opacity="0.06"/>
<path d="M1758.79 15.1029L1639.06 144L1638.45 142.897L1758.18 14L1758.79 15.1029Z" fill="white" fill-opacity="0.06"/>
<path d="M1650.07 144L1769.8 15.1029L1769.19 14L1649.46 142.897L1650.07 144Z" fill="white" fill-opacity="0.06"/>
<path d="M1780.8 15.1029L1661.07 144L1660.47 142.897L1780.19 14L1780.8 15.1029Z" fill="white" fill-opacity="0.06"/>
<path d="M1672.09 144L1791.82 15.1029L1791.21 14L1671.48 142.897L1672.09 144Z" fill="white" fill-opacity="0.06"/>
<path d="M1802.83 15.1029L1683.1 144L1682.49 142.897L1802.22 14L1802.83 15.1029Z" fill="white" fill-opacity="0.06"/>
<path d="M1694.11 144L1813.84 15.1029L1813.23 14L1693.5 142.897L1694.11 144Z" fill="white" fill-opacity="0.06"/>
<path d="M1824.85 15.1029L1705.12 144L1704.51 142.897L1824.24 14L1824.85 15.1029Z" fill="white" fill-opacity="0.06"/>
<path d="M1716.12 144L1835.85 15.1029L1835.25 14L1715.52 142.897L1716.12 144Z" fill="white" fill-opacity="0.06"/>
<path d="M1846.86 15.1029L1727.13 144L1726.53 142.897L1846.26 14L1846.86 15.1029Z" fill="white" fill-opacity="0.06"/>
<path d="M1738.14 144L1857.87 15.1029L1857.26 14L1737.53 142.897L1738.14 144Z" fill="white" fill-opacity="0.06"/>
<path d="M1868.89 15.1029L1749.16 144L1748.55 142.897L1868.28 14L1868.89 15.1029Z" fill="white" fill-opacity="0.06"/>
<path d="M1760.17 144L1879.9 15.1029L1879.29 14L1759.56 142.897L1760.17 144Z" fill="white" fill-opacity="0.06"/>
</g>
</g>
</g>
</g>
</g>
<path id="Rectangle 34624559_2" d="M1709.58 1L1797.77 98.5H2.29297L91.5859 1H1709.58Z" stroke="url(#paint6_linear_21609_15120)" stroke-opacity="0.32" stroke-width="2"/>
<path id="Rectangle 34624539" d="M731.271 129H1068.77" stroke="url(#paint7_linear_21609_15120)" stroke-width="2"/>
</g>
<defs>
<linearGradient id="paint0_linear_21609_15120" x1="900.021" y1="129" x2="900.021" y2="329" gradientUnits="userSpaceOnUse">
<stop stop-color="#097333"/>
<stop offset="1" stop-color="#08662E" stop-opacity="0"/>
</linearGradient>
<linearGradient id="paint1_linear_21609_15120" x1="900.021" y1="129" x2="900.021" y2="329" gradientUnits="userSpaceOnUse">
<stop stop-color="#00E05A"/>
<stop offset="1" stop-color="#00E05A" stop-opacity="0"/>
</linearGradient>
<linearGradient id="paint2_linear_21609_15120" x1="900.022" y1="159" x2="900.022" y2="329" gradientUnits="userSpaceOnUse">
<stop stop-color="#5CFF9D"/>
<stop offset="1" stop-color="#14FF72" stop-opacity="0"/>
</linearGradient>
<linearGradient id="paint3_linear_21609_15120" x1="92.2707" y1="29.4995" x2="378.128" y2="150.785" gradientUnits="userSpaceOnUse">
<stop stop-color="#C2FFD6"/>
<stop offset="1" stop-color="#1FFF69" stop-opacity="0"/>
</linearGradient>
<linearGradient id="paint4_linear_21609_15120" x1="1708.61" y1="29.4996" x2="1422.76" y2="150.785" gradientUnits="userSpaceOnUse">
<stop stop-color="#C2FFD6"/>
<stop offset="1" stop-color="#1FFF69" stop-opacity="0"/>
</linearGradient>
<linearGradient id="paint5_linear_21609_15120" x1="900.583" y1="128" x2="900.583" y2="326.995" gradientUnits="userSpaceOnUse">
<stop stop-color="#148AFF"/>
<stop offset="1" stop-color="#148AFF" stop-opacity="0"/>
</linearGradient>
<linearGradient id="paint6_linear_21609_15120" x1="900.021" y1="0" x2="900.021" y2="100" gradientUnits="userSpaceOnUse">
<stop stop-color="#74FFAC" stop-opacity="0"/>
<stop offset="1" stop-color="#74FFAB"/>
</linearGradient>
<linearGradient id="paint7_linear_21609_15120" x1="1067.65" y1="144.5" x2="731.271" y2="144.5" gradientUnits="userSpaceOnUse">
<stop stop-color="#00E04B" stop-opacity="0"/>
<stop offset="0.25986" stop-color="#00E04B"/>
<stop offset="0.510304" stop-color="#29FF70"/>
<stop offset="0.751296" stop-color="#00E04B"/>
<stop offset="1" stop-color="#00E04B" stop-opacity="0"/>
</linearGradient>
</defs>
</svg>
