<svg width="29" height="40" viewBox="0 0 29 40" fill="none" xmlns="http://www.w3.org/2000/svg">
<g id="Group 572">
<path id="Rectangle 3533" d="M12.0624 21.5725C12.2354 21.2444 12.5759 21.0391 12.9469 21.0391H26.6857C27.4386 21.0391 27.9214 21.8397 27.5702 22.5056L18.6251 39.4638C18.4521 39.7919 18.1116 39.9972 17.7406 39.9972H4.00182C3.24891 39.9972 2.76605 39.1966 3.11732 38.5307L12.0624 21.5725Z" fill="url(#paint0_linear_21609_15349)" fill-opacity="0.72"/>
<g id="Rectangle 3534" filter="url(#filter0_f_21609_15349)">
<path d="M11.3481 10.3772C11.5211 10.0491 11.8616 9.84375 12.2326 9.84375H24.8285C25.5814 9.84375 26.0643 10.6444 25.713 11.3103L17.4823 26.9143C17.3092 27.2424 16.9687 27.4478 16.5978 27.4478H4.00182C3.24891 27.4478 2.76605 26.6471 3.11732 25.9812L11.3481 10.3772Z" fill="url(#paint1_linear_21609_15349)"/>
</g>
<path id="Rectangle 3535" d="M10.4571 0.541106C10.6288 0.208761 10.9716 0 11.3456 0H22.5232C23.2723 0 23.7554 0.793311 23.4117 1.4589L16.0518 15.7087C15.8801 16.0411 15.5374 16.2498 15.1633 16.2498H3.98574C3.23663 16.2498 2.75349 15.4565 3.09725 14.7909L10.4571 0.541106Z" fill="url(#paint2_linear_21609_15349)" fill-opacity="0.72"/>
</g>
<defs>
<filter id="filter0_f_21609_15349" x="0" y="6.84375" width="28.8301" height="23.6016" filterUnits="userSpaceOnUse" color-interpolation-filters="sRGB">
<feFlood flood-opacity="0" result="BackgroundImageFix"/>
<feBlend mode="normal" in="SourceGraphic" in2="BackgroundImageFix" result="shape"/>
<feGaussianBlur stdDeviation="1.5" result="effect1_foregroundBlur_21609_15349"/>
</filter>
<linearGradient id="paint0_linear_21609_15349" x1="10.7661" y1="26.6551" x2="19.3887" y2="38.1802" gradientUnits="userSpaceOnUse">
<stop stop-color="#00FF66"/>
<stop offset="1" stop-color="#00FFF0"/>
</linearGradient>
<linearGradient id="paint1_linear_21609_15349" x1="10.1645" y1="15.0587" x2="18.1712" y2="25.7605" gradientUnits="userSpaceOnUse">
<stop stop-color="#00FF66"/>
<stop offset="1" stop-color="#00FFF0"/>
</linearGradient>
<linearGradient id="paint2_linear_21609_15349" x1="9.41254" y1="4.81375" x2="16.8458" y2="14.5422" gradientUnits="userSpaceOnUse">
<stop stop-color="#00FF66"/>
<stop offset="1" stop-color="#00FFF0"/>
</linearGradient>
</defs>
</svg>
