<svg width="32" height="32" viewBox="0 0 32 32" fill="none" xmlns="http://www.w3.org/2000/svg">
<g id="Group 1142814036">
<circle id="Ellipse 2317" cx="16" cy="16" r="16" fill="url(#paint0_linear_21609_15658)"/>
<g id="Vector">
<path d="M12.1808 10.2676H12.5758C12.9913 10.2676 13.3282 9.91779 13.3282 9.48632V6.78125C13.3282 6.34978 12.9913 6 12.5758 6H12.1808C11.7654 6 11.4285 6.34978 11.4285 6.78125V9.48632C11.4285 9.91779 11.7653 10.2676 12.1808 10.2676Z" fill="white"/>
<path d="M19.4242 10.2676H19.8191C20.2346 10.2676 20.5715 9.91779 20.5715 9.48632V6.78125C20.5715 6.34978 20.2346 6 19.8191 6H19.4242C19.0087 6 18.6718 6.34978 18.6718 6.78125V9.48632C18.6718 9.91779 19.0087 10.2676 19.4242 10.2676Z" fill="white"/>
<path d="M14.3957 7.01988H17.6042V8.18681H14.3957V7.01988Z" fill="white"/>
<path d="M11.5988 13.7246H20.4012C20.6089 13.7246 20.7773 13.5497 20.7773 13.334V13.0019C20.7773 12.7862 20.6089 12.6113 20.4012 12.6113H11.5988C11.3911 12.6113 11.2227 12.7862 11.2227 13.0019V13.334C11.2227 13.5497 11.3911 13.7246 11.5988 13.7246Z" fill="white"/>
<path d="M11.5988 17.0246H20.4012C20.6089 17.0246 20.7773 16.8497 20.7773 16.634V16.3019C20.7773 16.0862 20.6089 15.9113 20.4012 15.9113H11.5988C11.3911 15.9113 11.2227 16.0862 11.2227 16.3019V16.634C11.2227 16.8497 11.3911 17.0246 11.5988 17.0246Z" fill="white"/>
<path d="M11.5988 20.3457H20.4012C20.6089 20.3457 20.7773 20.1708 20.7773 19.9551V19.623C20.7773 19.4073 20.6089 19.2324 20.4012 19.2324H11.5988C11.3911 19.2324 11.2227 19.4073 11.2227 19.623V19.9551C11.2227 20.1708 11.3911 20.3457 11.5988 20.3457Z" fill="white"/>
<path d="M23.3514 7.02381H21.6519V8.19209H22.2526C22.6108 8.19209 22.9012 8.49361 22.9012 8.86558V24.0127C22.9012 24.3847 22.6108 24.6862 22.2526 24.6862H9.75247C9.39429 24.6862 9.1039 24.3847 9.1039 24.0127V8.86558C9.1039 8.49363 9.39427 8.19209 9.75247 8.19209H10.3481V7.02381H8.64857C8.29038 7.02381 8 7.32533 8 7.6973V25.3265C8 25.6985 8.29036 26 8.64857 26H23.3514C23.7096 26 24 25.6985 24 25.3265V7.6973C24 7.32533 23.7096 7.02381 23.3514 7.02381Z" fill="white"/>
</g>
</g>
<defs>
<linearGradient id="paint0_linear_21609_15658" x1="16" y1="0" x2="16" y2="32" gradientUnits="userSpaceOnUse">
<stop stop-color="#009B3E"/>
<stop offset="1" stop-color="#00993D" stop-opacity="0.35"/>
</linearGradient>
</defs>
</svg>
