<svg width="60" height="60" viewBox="0 0 60 60" fill="none" xmlns="http://www.w3.org/2000/svg">
<g id="Group 1321317312">
<path id="Vector" d="M30.4136 0.00158203C30.7748 0.00175882 31.1317 0.0809446 31.4594 0.233635C31.7872 0.386326 32.0778 0.608857 32.3113 0.885762C34.429 3.39305 53 25.7251 53 37.4058C53 49.8635 42.9064 60 30.5 60C18.0937 60 8 49.8634 8 37.4058C8 25.7299 26.4091 3.39937 28.5065 0.89209C28.7399 0.613381 29.031 0.389166 29.3596 0.235089C29.6881 0.0810125 30.0462 0.000783676 30.4088 0L30.4136 0V0.00158203ZM30.5 54.9996C40.1597 54.9996 48.0209 47.1067 48.0209 37.4043C48.0209 29.9045 36.6679 14.2165 30.4214 6.44039C24.2269 14.2228 12.9793 29.9092 12.9793 37.4043C12.9793 47.1067 20.8388 54.9996 30.5 54.9996ZM20.1737 27.0372C22.249 27.5487 25.0586 29.1687 28.3775 30.8344C31.9182 32.6123 33.3567 33.3339 38.3344 32.5002C39.7745 32.2602 41.0402 31.6792 42.1156 31.095C43.1721 30.5187 44.4975 30.9608 44.9503 32.0786C45.7678 34.0933 46.2662 35.9532 46.2662 37.5006C46.2662 46.2445 39.207 53.3338 30.5001 53.3338C21.7932 53.3338 14.7338 46.2446 14.7338 37.5006C14.7338 34.9586 16.0624 31.5718 17.9443 28.0461C18.1517 27.6533 18.4833 27.3409 18.8869 27.1579C19.2904 26.975 19.7431 26.932 20.1737 27.0356V27.0372Z" fill="url(#paint0_linear_21609_15468)"/>
</g>
<defs>
<linearGradient id="paint0_linear_21609_15468" x1="30.5" y1="0" x2="30.5" y2="60" gradientUnits="userSpaceOnUse">
<stop stop-color="#86FFAE"/>
<stop offset="1" stop-color="#86FFAE" stop-opacity="0"/>
</linearGradient>
</defs>
</svg>
