<svg width="60" height="60" viewBox="0 0 60 60" fill="none" xmlns="http://www.w3.org/2000/svg">
<g id="Group 1321317312">
<path id="Vector" d="M38.1594 20.7857V7.39286C38.1594 3.32143 34.8148 0 30.715 0H30.3913C26.2915 0 22.9469 3.32143 22.9469 7.39286V20.7857C15.3945 23.7857 10 31.0714 10 39.6429C10 50.8929 19.1707 60 30.4992 60C41.8277 60 50.9984 50.8929 50.9984 39.6429C51.1063 31.0714 45.8196 23.7857 38.1594 20.7857ZM30.6071 47.1429C26.3994 47.1429 23.0547 43.8214 23.0547 39.6429C23.0547 36.2143 25.3204 33.4286 28.4493 32.4643V9.10714H32.7649V32.4643C35.8937 33.4286 38.1594 36.2143 38.1594 39.6429C38.1594 43.8214 34.8148 47.1429 30.6071 47.1429Z" fill="url(#paint0_linear_21609_15447)"/>
</g>
<defs>
<linearGradient id="paint0_linear_21609_15447" x1="30.5" y1="0" x2="30.5" y2="60" gradientUnits="userSpaceOnUse">
<stop stop-color="#86FFAE"/>
<stop offset="1" stop-color="#86FFAE" stop-opacity="0"/>
</linearGradient>
</defs>
</svg>
