<svg width="60" height="60" viewBox="0 0 60 60" fill="none" xmlns="http://www.w3.org/2000/svg">
<path d="M48.2732 20.6607C53.4414 20.7029 54.1772 20.3472 57.0121 23.428C62.0002 21.5078 59.6638 13.1938 54.1051 14.5232C54.6337 10.7521 47.8287 3.56258 41.9097 11.777C42.0779 11.8524 48.6335 14.6257 48.2732 20.6607ZM50.111 24.3353L49.6906 24.1575L45.1019 24.0007C43.1319 16.2083 36.5612 11.0777 28.9124 11.0656C20.7171 11.0536 13.6959 16.7961 10.819 26.7228L9.76193 26.7771L9.31748 26.9881C2.6687 30.1352 -0.466494 35.5703 0.0560383 41.5812C0.497488 46.6967 3.66271 51.4807 7.61474 52.8312L8.00514 52.9638L49.7357 53L50.042 52.9216C55.8379 51.4385 59.6938 45.9763 59.9821 39.664C60.2854 33.0984 56.7238 27.1117 50.111 24.3353ZM24.6361 45.0327C23.4645 45.9647 22.0043 46.4544 20.5099 46.4164C18.0324 46.4164 16.1765 45.6175 14.9692 44.0681C13.9062 42.7267 13.3866 40.921 13.3866 38.6571C13.3866 36.4354 13.9272 34.6117 15.0323 33.228C16.2816 31.6334 18.0954 30.8587 20.4708 30.8587C22.2186 30.8587 23.6781 31.3199 24.8013 32.2423C25.8911 33.1469 26.5923 34.438 26.7592 35.8476H24.3868C24.2116 34.9761 23.7123 34.2044 22.9904 33.6893C22.2251 33.2076 21.331 32.973 20.4288 33.017C18.8672 33.017 17.699 33.5416 16.9062 34.6328C16.1795 35.5974 15.8251 36.9389 15.8251 38.6571C15.8251 40.4206 16.1765 41.7831 16.8852 42.7267C17.657 43.7305 18.8642 44.255 20.4889 44.255C21.4188 44.2905 22.3347 44.0183 23.0955 43.4803C23.8603 42.8145 24.3866 41.9156 24.594 40.921H26.9695C26.6361 42.6845 25.8643 44.047 24.6361 45.0327ZM41.24 44.2128C39.9277 45.6809 38.1358 46.4154 35.8645 46.4164C33.5732 46.4164 31.7834 45.6597 30.4921 44.1917C29.2398 42.7689 28.6362 40.921 28.6362 38.6571C28.6362 36.3721 29.2398 34.5273 30.489 33.1014C31.7804 31.5912 33.5732 30.8587 35.8645 30.8587C38.1348 30.8587 39.9277 31.5912 41.24 33.0803C42.4893 34.4851 43.1139 36.351 43.1139 38.6571C43.1139 40.9632 42.4893 42.8081 41.24 44.2128ZM50.8348 45.6989H44.9998C44.9837 44.8734 45.2811 44.0726 45.8317 43.4592C46.4139 42.8754 47.0585 42.3578 47.7536 41.9158C48.1645 41.6378 48.5485 41.3219 48.9008 40.9722C49.2431 40.6124 49.4391 40.1372 49.4504 39.6398C49.4637 39.4531 49.4383 39.2655 49.3758 39.0891C49.3132 38.9127 49.2149 38.7512 49.087 38.6149C48.7793 38.3707 48.391 38.2523 47.9999 38.2833C47.778 38.2687 47.556 38.3094 47.3537 38.402C47.1514 38.4946 46.9752 38.6361 46.8407 38.8139C46.5493 39.2576 46.4015 39.7808 46.4173 40.3121H45.0479C45.0184 39.4757 45.3121 38.6602 45.8677 38.0361C46.1412 37.732 46.4781 37.4919 46.8543 37.3331C47.2306 37.1742 47.6371 37.1003 48.0449 37.1167C48.7774 37.0894 49.493 37.3414 50.048 37.8221C50.3024 38.0518 50.5037 38.3346 50.6375 38.6508C50.7714 38.9669 50.8346 39.3086 50.8228 39.6519C50.812 40.3957 50.5188 41.1073 50.0029 41.6415C49.4723 42.1523 48.8907 42.6069 48.2672 42.998C47.4143 43.5647 46.8978 44.0591 46.7116 44.4841H50.8348V45.6989ZM35.8645 33.017C34.324 33.017 33.1377 33.5416 32.2819 34.5906C31.4711 35.5974 31.0746 36.9389 31.0746 38.6571C31.0746 40.3573 31.4711 41.6987 32.2819 42.7056C33.1167 43.7305 34.324 44.255 35.8645 44.255C37.4051 44.255 38.5943 43.7516 39.4292 42.7689C40.24 41.7831 40.6574 40.4206 40.6574 38.6571C40.6574 36.8937 40.24 35.513 39.4292 34.5062C38.5943 33.4993 37.4081 33.017 35.8645 33.017Z" fill="url(#paint0_linear_23297_16057)"/>
<defs>
<linearGradient id="paint0_linear_23297_16057" x1="30" y1="8" x2="30" y2="53" gradientUnits="userSpaceOnUse">
<stop stop-color="#86FFAE"/>
<stop offset="1" stop-color="#86FFAE" stop-opacity="0"/>
</linearGradient>
</defs>
</svg>
