<svg width="60" height="60" viewBox="0 0 60 60" fill="none" xmlns="http://www.w3.org/2000/svg">
<g id="Group 1321317313">
<g id="Vector">
<path d="M17.1824 10.9094C17.1824 8.01605 18.3318 5.2412 20.3777 3.19529C22.4236 1.14938 25.1985 0 28.0918 0C30.9852 0 33.76 1.14938 35.8059 3.19529C37.8519 5.2412 39.0012 8.01605 39.0012 10.9094V25.2403C42.3369 27.5628 44.8442 30.8893 46.1583 34.7356C47.4724 38.5819 47.5247 42.7472 46.3076 46.6252C45.0904 50.5033 42.6674 53.8917 39.3911 56.2972C36.1149 58.7028 32.1564 60 28.0918 60C24.0273 60 20.0688 58.7028 16.7925 56.2972C13.5163 53.8917 11.0932 50.5033 9.87609 46.6252C8.65895 42.7472 8.71125 38.5819 10.0254 34.7356C11.3395 30.8893 13.8468 27.5628 17.1824 25.2403V10.9094ZM20.3024 29.7132C17.9193 31.3717 16.1278 33.7476 15.1886 36.4949C14.2494 39.2422 14.2116 42.2175 15.0807 44.9878C15.9498 47.758 17.6804 50.1786 20.0206 51.8971C22.3608 53.6156 25.1884 54.5423 28.0918 54.5423C30.9952 54.5423 33.8228 53.6156 36.163 51.8971C38.5032 50.1786 40.2338 47.758 41.1029 44.9878C41.972 42.2175 41.9342 39.2422 40.9951 36.4949C40.0559 33.7476 38.2644 31.3717 35.8813 29.7132L33.5458 28.0857V10.9094C33.5458 9.46292 32.9712 8.07569 31.9484 7.05288C30.9255 6.03006 29.5383 5.45545 28.0918 5.45545C26.6454 5.45545 25.2581 6.03006 24.2353 7.05288C23.2125 8.07569 22.6379 9.46292 22.6379 10.9094V28.0842L20.3024 29.7132ZM25.3649 30.3432V10.9094H30.8188V30.3432C33.3841 31.013 35.6178 32.5936 37.1029 34.7899C38.588 36.9862 39.2228 39.648 38.8888 42.2781C38.5548 44.9082 37.2748 47.3269 35.2879 49.0822C33.301 50.8376 30.7431 51.8098 28.0918 51.817C25.4356 51.8183 22.8702 50.8504 20.8768 49.0949C18.8833 47.3395 17.5988 44.917 17.2642 42.282C16.9296 39.6469 17.5678 36.9803 19.0592 34.7823C20.5506 32.5843 22.7926 31.0059 25.3649 30.3432Z" fill="url(#paint0_linear_21609_15461)"/>
<path d="M42.3417 3.74997H51.3416V8.24993H42.3417V3.74997ZM42.3417 11.2499H51.3416V15.7499H42.3417V11.2499ZM42.3417 18.7498H51.3416V23.2498H42.3417V18.7498Z" fill="url(#paint1_linear_21609_15461)"/>
</g>
</g>
<defs>
<linearGradient id="paint0_linear_21609_15461" x1="30.1708" y1="0" x2="30.1708" y2="60" gradientUnits="userSpaceOnUse">
<stop stop-color="#86FFAE"/>
<stop offset="1" stop-color="#86FFAE" stop-opacity="0"/>
</linearGradient>
<linearGradient id="paint1_linear_21609_15461" x1="30.1708" y1="0" x2="30.1708" y2="60" gradientUnits="userSpaceOnUse">
<stop stop-color="#86FFAE"/>
<stop offset="1" stop-color="#86FFAE" stop-opacity="0"/>
</linearGradient>
</defs>
</svg>
