<svg width="60" height="60" viewBox="0 0 60 60" fill="none" xmlns="http://www.w3.org/2000/svg">
<g id="Group 1321317313">
<g id="Vector">
<path d="M29.8286 34.8857C37.7571 34.8857 43.1143 29.5714 43.1143 21.6C43.1143 13.6286 37.7571 8.27143 29.8286 8.27143C21.8571 8.31429 16.5429 13.6714 16.5429 21.6C16.5429 29.5286 21.9 34.8857 29.8286 34.8857ZM30.4286 16.6286H31.9714V20.6571H36.2143V16.6286H37.7571V26.4857H36.2143V22.0286H31.9714V26.4857H30.4286V16.6286ZM21.8143 16.6286H24.8143C27 16.6286 28.5857 17.4857 28.5857 19.6286C28.5857 21.7714 27 22.7571 24.8571 22.7571H23.3571V26.4857H21.8143V16.6286Z" fill="url(#paint0_linear_21609_15482)"/>
<path d="M30 0C13.4143 0 0 13.4143 0 30C0 46.5857 13.4143 60 30 60C46.5857 60 60 46.5857 60 30C60 13.4143 46.5857 0 30 0ZM29.7857 5.48571C38.6571 5.48571 45.9 12.7286 45.9 21.6C45.9 30.4714 38.7 37.7143 29.8286 37.7143C20.9143 37.6714 13.7143 30.4714 13.7143 21.6C13.7143 12.6857 20.9143 5.48571 29.7857 5.48571ZM52.8 41.3143L52.5429 41.7857C52.4571 41.9571 52.3714 42.1286 52.2429 42.3C52.1143 42.4714 52.0286 42.6429 51.9 42.8143L51.4286 43.5C51.3 43.6286 51.2143 43.8429 51.0857 43.9714C50.9571 44.1 50.8714 44.2714 50.7429 44.4C50.6571 44.5286 50.5286 44.7 50.4 44.8286C50.2714 44.9571 50.1857 45.0857 50.0571 45.2143C49.8857 45.4286 49.6714 45.6857 49.4571 45.9429C49.3286 46.0286 49.2 46.1571 49.1143 46.2857L48.7286 46.7143C48.6429 46.8 48.6 46.8857 48.3857 47.0571C48.1714 47.2286 47.9571 47.4429 47.8286 47.5714L47.4 48C47.1857 48.1714 47.0143 48.3 46.8429 48.4714L46.5 48.7714C46.3286 48.9 46.1571 49.0714 45.9857 49.2C45.8571 49.2857 45.7714 49.3714 45.6429 49.4571C45.3857 49.6714 45.1286 49.8429 44.8286 50.0571C44.7 50.1 44.6143 50.1857 44.4857 50.2714C44.2714 50.4 44.1 50.5286 43.8857 50.6571C43.8 50.7 43.6714 50.8286 43.5429 50.8714L42.7286 51.3857L42.4714 51.5143L41.6571 51.9429C41.5714 51.9857 41.4429 52.0714 41.3143 52.1143C41.1 52.2429 40.8429 52.3286 40.5857 52.4571C40.5 52.5 40.3714 52.5429 40.2857 52.5857C39.9857 52.7143 39.6429 52.8429 39.3 52.9714C39.2143 52.9714 39.0857 53.0143 39 53.0571C38.7429 53.1857 38.4857 53.2714 38.2286 53.3572L37.8857 53.4429L36.7714 53.7429H36.7286L35.7 54L35.3571 54.0429C35.0571 54.1286 34.7571 54.1714 34.4571 54.2143C34.3714 54.2571 34.2857 54.2571 34.2 54.2571C33.8571 54.3429 33.4714 54.3857 33.0857 54.4286H32.8286L31.8857 54.4714H28.8429C28.5429 54.4714 28.2429 54.4286 27.9429 54.4286H27.6429C27.2571 54.3857 26.9143 54.3 26.5286 54.2571C26.4429 54.2143 26.3571 54.2143 26.2714 54.2143C25.9714 54.1714 25.6714 54.0857 25.3714 54.0429L25.0286 54C24.7286 53.9143 24.4286 53.8714 24.1286 53.7857L23.9143 53.7429L22.8857 53.4429L22.5429 53.3572L21.8143 53.1C21.7286 53.0571 21.6 53.0143 21.4714 52.9714C21.1714 52.8429 20.8714 52.7143 20.5286 52.5857L20.2714 52.4571C20.0143 52.3714 19.7571 52.2429 19.5 52.1143L19.1143 51.9C18.8571 51.7714 18.6 51.6429 18.4714 51.5572C18.3429 51.4714 18.2143 51.3857 18.0857 51.3429C17.7857 51.1714 17.5286 51 17.2286 50.8286L16.8429 50.5714C16.6714 50.4429 16.5 50.3571 16.3286 50.2286L15.9 49.9286C15.7286 49.8429 15.5571 49.7143 15.3857 49.5857L14.7857 49.1143C14.6143 49.0286 14.4429 48.8571 14.2714 48.7286L13.8429 48.3429C13.7571 48.2143 13.6286 48.1286 13.5 48C13.3714 47.9143 13.2 47.7429 13.0714 47.6143C12.9429 47.4857 12.8143 47.4 12.7286 47.2714C12.4714 47.0571 12.2143 46.7571 11.9571 46.5C11.8286 46.4143 11.7429 46.2857 11.6571 46.2L11.2286 45.6857L10.9714 45.3857C10.4571 44.8286 9.98571 44.2286 9.55714 43.5857C9.51429 43.5 9.42857 43.4143 9.38571 43.3286C9.25714 43.1143 9.12857 42.9429 9 42.7286C8.95714 42.6429 8.91429 42.6 8.87143 42.5143L8.1 41.2286C8.05714 41.1857 8.01429 41.1429 8.01429 41.1C7.88572 40.8429 7.8 40.6286 7.67143 40.4143C7.62857 40.2857 7.58572 40.2 7.54286 40.1143V39.3429C11.5714 37.9714 11.1 40.3286 16.2 40.7571C22.4143 41.3143 25.8857 41.1429 28.0714 40.8C28.0714 40.8 30.6857 40.0286 30.7286 40.0286H30.8571C30.9 39.9857 30.9857 39.9857 31.0286 39.9857C31.9286 39.9 32.8714 39.6857 33.7286 39.3857C34.9286 39.3429 36.6857 39.6 39.8143 40.4143C46.5857 42.2143 46.9286 37.4571 52.0286 39.0857C52.5 39.3 52.9286 39.4714 53.3143 39.6429L53.4857 39.9429L52.8 41.3143Z" fill="url(#paint1_linear_21609_15482)"/>
<path d="M27.0429 19.6714C27.0429 18.3429 26.2286 17.9143 24.6429 17.9143H23.3571V21.5571H24.6857C26.3143 21.5571 27.0429 21 27.0429 19.6714Z" fill="url(#paint2_linear_21609_15482)"/>
</g>
</g>
<defs>
<linearGradient id="paint0_linear_21609_15482" x1="30" y1="0" x2="30" y2="60" gradientUnits="userSpaceOnUse">
<stop stop-color="#86FFAE"/>
<stop offset="1" stop-color="#86FFAE" stop-opacity="0"/>
</linearGradient>
<linearGradient id="paint1_linear_21609_15482" x1="30" y1="0" x2="30" y2="60" gradientUnits="userSpaceOnUse">
<stop stop-color="#86FFAE"/>
<stop offset="1" stop-color="#86FFAE" stop-opacity="0"/>
</linearGradient>
<linearGradient id="paint2_linear_21609_15482" x1="30" y1="0" x2="30" y2="60" gradientUnits="userSpaceOnUse">
<stop stop-color="#86FFAE"/>
<stop offset="1" stop-color="#86FFAE" stop-opacity="0"/>
</linearGradient>
</defs>
</svg>
