<svg width="60" height="60" viewBox="0 0 60 60" fill="none" xmlns="http://www.w3.org/2000/svg">
<path d="M29.2988 0C30.5962 0 31.6513 0.762722 31.7002 1.7168H31.7051V9.6582C35.4366 9.9874 38.8495 11.3391 41.5928 13.4053L47.3311 7.78516L47.3369 7.79199C48.0554 7.16111 49.3381 7.38022 50.2461 8.30664C51.154 9.23324 51.3485 10.5213 50.7031 11.2266L50.707 11.2305L50.6562 11.2793L45.0205 16.7998C47.0144 19.4153 48.2218 22.57 48.3242 25.9824L48.3252 25.9814C54.4358 28.8098 58.6768 34.9927 58.6768 42.168C58.6767 51.8081 51.0263 59.6563 41.4658 59.9844L15.5391 60C8.0566 59.9698 2 53.8961 2 46.4062C2.00014 39.7957 6.72035 34.2894 12.9736 33.0684C12.4916 32.0391 12.1226 30.9606 11.874 29.8516H4.3418V29.8418C3.38367 29.7923 2.62207 28.7361 2.62207 27.4395C2.62215 26.1428 3.38371 25.0907 4.3418 25.0352V25.0312H11.5811C11.8607 21.9595 13.0372 19.1235 14.8711 16.7402L9.53613 11.0244L9.54297 11.0176C8.93016 10.2842 9.18114 9.00628 10.1299 8.12109C11.0787 7.23593 12.3704 7.07394 13.0596 7.73633L13.1074 7.78809L18.3027 13.3574C20.8291 11.4872 23.7766 10.2667 26.8857 9.80469V1.7168H26.8955C26.9478 0.762804 28.0017 0.000126332 29.2988 0ZM42.0117 42.6885L41.6611 48.417L43.3691 48.7354C43.6711 48.2122 44.1005 47.9512 44.6562 47.9512C44.8479 47.9492 45.0373 47.9903 45.2109 48.0713C45.3846 48.1523 45.5386 48.2707 45.6602 48.4189C45.9305 48.7281 46.075 49.1275 46.0664 49.5381C46.0732 49.9335 45.936 50.318 45.6797 50.6191C45.4219 50.9256 45.0733 51.0791 44.6357 51.0791C43.8398 51.0789 43.3413 50.634 43.1406 49.7451L41.1719 50.0801C41.6224 51.9958 42.8017 52.9541 44.709 52.9541C45.8059 52.9541 46.6604 52.6193 47.2715 51.9502L47.2705 51.9482C47.8807 51.2791 48.1855 50.418 48.1855 49.3662C48.1868 48.419 47.9049 47.6452 47.3398 47.0449C46.7748 46.4447 46.0883 46.1446 45.2803 46.1445C44.489 46.1468 43.8518 46.4361 43.3701 47.0137L43.5146 44.7627H47.4238L47.6543 42.6885H42.0117ZM10.5723 42.6885V52.8008H12.7051V49.0449H14.1826C14.8195 49.0449 15.2881 49.0003 15.5879 48.9111C15.8857 48.8224 16.1944 48.642 16.5137 48.3701C16.8331 48.098 17.081 47.7247 17.2559 47.251C17.4296 46.7842 17.518 46.2901 17.5186 45.792C17.5186 45.0806 17.3546 44.4806 17.0264 43.9922C16.6968 43.5042 16.3243 43.1641 15.9082 42.9736C15.4921 42.7832 14.8896 42.6885 14.1016 42.6885H10.5723ZM33.2197 42.5312C31.33 42.5314 30.1775 43.6446 29.7627 45.8711L31.6133 46.3398C31.7533 45.0512 32.2606 44.4063 33.1357 44.4062C33.5118 44.4067 33.8112 44.5343 34.0342 44.7881C34.2572 45.0418 34.3691 45.3637 34.3691 45.7539C34.3687 46.2882 34.0886 46.875 33.5293 47.5137C32.9699 48.1524 32.0751 48.9655 30.8457 49.9531C30.3422 50.3532 29.9813 50.6472 29.7627 50.835V52.7979H36.4775L36.4795 52.7988L36.6309 50.7842H32.3486C33.9357 49.7176 35.0263 48.8316 35.6191 48.125C36.1981 47.4567 36.5137 46.6 36.5078 45.7158C36.5228 44.8865 36.2187 44.083 35.6582 43.4717C35.0913 42.8446 34.2782 42.5312 33.2197 42.5312ZM18.6816 42.6885V52.7979H20.4414V44.5547L22.6494 52.7979H24.085L26.3379 44.5547V52.7979H28.4521V42.6885H25.1738L23.5205 48.7393L21.9482 42.6885H18.6816ZM37.9307 50.5098V52.7979H39.957L39.958 50.5098H37.9307ZM13.9902 44.5244C14.4673 44.5244 14.8215 44.6455 15.0557 44.8877C15.2898 45.1299 15.4072 45.4545 15.4072 45.8652C15.4115 46.2028 15.3 46.5322 15.0918 46.7979C14.8812 47.0697 14.5164 47.206 13.9971 47.2061H12.6318V44.5244H13.9902ZM29.9199 12.9365C21.4847 12.9366 14.6455 18.99 14.6455 26.457C14.6456 28.7713 15.3038 30.9422 16.46 32.8457C19.2793 33.0204 21.9734 34.0731 24.1641 35.8564C26.7127 29.1233 33.216 24.334 40.8438 24.334C42.2712 24.3343 43.6934 24.506 45.0801 24.8447C44.1807 18.1378 37.7373 12.9346 29.917 12.9346L29.9199 12.9365Z" fill="url(#paint0_linear_23297_16065)"/>
<defs>
<linearGradient id="paint0_linear_23297_16065" x1="30.3384" y1="0" x2="30.3384" y2="59.9999" gradientUnits="userSpaceOnUse">
<stop stop-color="#86FFAE"/>
<stop offset="1" stop-color="#86FFAE" stop-opacity="0"/>
</linearGradient>
</defs>
</svg>
