<svg width="60" height="60" viewBox="0 0 60 60" fill="none" xmlns="http://www.w3.org/2000/svg">
<path d="M53.7725 17.4404C55.732 17.6364 57.2998 19.5958 56.7119 21.3594V39.3867C56.7119 50.752 47.6983 59.9627 36.333 59.9629H17.3252C16.1496 60.1588 15.1699 59.5705 14.582 58.5908C14.3861 58.003 14.1895 57.415 14.1895 56.8271V37.8193C14.1895 26.65 23.3994 17.4406 34.7646 17.4404H53.7725ZM48.0898 26.6504C47.5021 26.6504 46.7186 26.6499 46.1309 26.8457C40.6441 28.6093 35.5487 31.549 31.4336 35.6641V32.333C31.4336 30.9613 30.4537 29.9814 29.082 29.9814C27.9064 29.9816 26.7305 30.9614 26.7305 32.333V41.1504C25.3588 43.5019 23.9876 45.8539 23.0078 48.4014C22.812 48.7931 22.8121 48.9891 22.6162 49.3809C22.4203 50.1647 22.4199 51.1449 23.0078 51.9287C23.5956 52.5163 24.3794 52.7119 25.1631 52.7119H26.3389L26.7305 52.3203C27.3183 51.5366 27.7107 50.9487 28.1025 50.165C28.8864 48.4014 29.6703 47.0293 30.4541 45.8535C30.846 45.8535 31.238 46.0498 31.6299 46.0498H42.9951C44.3668 46.0498 45.543 44.8736 45.543 43.502C45.5428 42.1304 44.3667 40.9551 42.9951 40.9551H33.9814C36.9207 37.232 40.8395 34.2926 45.1504 32.333C47.8938 31.1573 49.2653 30.1767 49.6572 29.001C49.8531 28.6091 49.8535 28.0217 49.8535 27.6299L49.2656 26.8457L48.874 26.6504H48.0898ZM6.93945 8.42578C8.50698 8.42585 9.87879 9.79771 9.87891 11.3652V26.6504C9.87867 28.2178 8.50691 29.5888 6.93945 29.5889C5.37194 29.5889 4.00024 28.2179 4 26.6504V11.3652C4.00012 9.79767 5.37187 8.42578 6.93945 8.42578ZM17.5205 0C19.0882 0 20.46 1.37181 20.46 2.93945V19.3994C20.46 20.9671 19.0882 22.3389 17.5205 22.3389C15.953 22.3386 14.582 20.9669 14.582 19.3994V2.93945C14.582 1.37195 15.953 0.000255489 17.5205 0ZM28.1025 1.95996C29.67 1.95996 31.0417 3.33098 31.042 4.89844V13.7168C31.042 15.2844 29.6702 16.6562 28.1025 16.6562C26.5349 16.6562 25.1631 15.4804 25.1631 13.7168V4.89844C25.1634 3.33099 26.5351 1.95997 28.1025 1.95996Z" fill="url(#paint0_linear_23298_16079)"/>
<defs>
<linearGradient id="paint0_linear_23298_16079" x1="30.4185" y1="0" x2="30.4185" y2="60.0004" gradientUnits="userSpaceOnUse">
<stop stop-color="#86FFAE"/>
<stop offset="1" stop-color="#86FFAE" stop-opacity="0"/>
</linearGradient>
</defs>
</svg>
