<svg width="60" height="60" viewBox="0 0 60 60" fill="none" xmlns="http://www.w3.org/2000/svg">
<g id="Group 1321317313">
<path id="Vector" d="M58.0343 6.70827L31.8253 0.0936038C30.9516 -0.156006 29.9532 0.0936037 29.3292 0.842434L13.8534 17.5663H11.2324V5.0858H17.4727V0.0936038H0V5.0858H6.24025V55.0078H0V60H17.4727V55.0078H11.2324V22.5585H13.8534L29.3292 39.2824C29.8284 39.7816 30.4524 40.0312 31.2012 40.0312C31.4509 40.0312 31.5757 40.0312 31.8253 39.9064L58.0343 33.2917C59.1576 33.0421 59.9064 32.0437 59.9064 30.9204V9.32917C59.9064 8.08112 59.1576 7.08268 58.0343 6.70827ZM34.9454 28.6739H29.9532V11.2012H34.9454V28.6739ZM44.9298 26.1778H39.9376V13.6973H44.9298V26.1778Z" fill="url(#paint0_linear_21609_15475)"/>
</g>
<defs>
<linearGradient id="paint0_linear_21609_15475" x1="29.9532" y1="0" x2="29.9532" y2="60" gradientUnits="userSpaceOnUse">
<stop stop-color="#86FFAE"/>
<stop offset="1" stop-color="#86FFAE" stop-opacity="0"/>
</linearGradient>
</defs>
</svg>
