<svg width="60" height="60" viewBox="0 0 60 60" fill="none" xmlns="http://www.w3.org/2000/svg">
<g id="Group 1321317312">
<g id="Vector">
<path d="M5.35714 39.7173C4.50466 39.7173 3.6871 40.0587 3.0843 40.6664C2.4815 41.2741 2.14286 42.0983 2.14286 42.9578C2.14286 43.8172 2.4815 44.6415 3.0843 45.2492C3.6871 45.8569 4.50466 46.1983 5.35714 46.1983H34.5557C34.1088 47.9432 34.2142 49.7852 34.8572 51.4667C35.5001 53.1482 36.6484 54.585 38.1413 55.576C39.6343 56.567 41.3972 57.0627 43.1834 56.9937C44.9696 56.9246 46.6897 56.2943 48.103 55.1909C49.5163 54.0875 50.5521 52.5663 51.0654 50.8401C51.5787 49.1139 51.5439 47.2691 50.9657 45.5639C50.3876 43.8586 49.2952 42.3783 47.8412 41.3299C46.3873 40.2816 44.6447 39.7177 42.8571 39.7173H5.35714Z" fill="url(#paint0_linear_21609_15454)"/>
<path d="M36.4286 11.6328C36.4286 12.7676 36.2069 13.8913 35.7761 14.9397C35.3454 15.9882 34.714 16.9408 33.9181 17.7432C33.1221 18.5456 32.1772 19.1821 31.1373 19.6164C30.0974 20.0507 28.9828 20.2742 27.8571 20.2742H9.64286C8.79038 20.2742 7.97281 19.9328 7.37001 19.3251C6.76722 18.7174 6.42857 17.8931 6.42857 17.0337C6.42857 16.1742 6.76722 15.35 7.37001 14.7423C7.97281 14.1346 8.79038 13.7932 9.64286 13.7932H19.5557C19.2529 12.6058 19.2042 11.367 19.4127 10.1592C19.6213 8.95136 20.0825 7.80209 20.7655 6.78775C21.4485 5.7734 22.3379 4.91719 23.3744 4.276C24.4109 3.63481 25.5709 3.22332 26.7773 3.06886C27.9836 2.9144 29.2088 3.0205 30.3714 3.38013C31.534 3.73975 32.6074 4.34466 33.5202 5.15467C34.4331 5.96469 35.1645 6.96126 35.666 8.07818C36.1674 9.19511 36.4274 10.4068 36.4286 11.6328ZM60 22.4345C60.0003 24.0365 59.6472 25.6184 58.9663 27.0658C58.2853 28.5132 57.2936 29.7897 56.0629 30.803C54.8322 31.8163 53.3933 32.5409 51.8505 32.9244C50.3078 33.3079 48.6997 33.3406 47.1429 33.0202V33.2362H3.21429C2.3618 33.2362 1.54424 32.8948 0.941442 32.2871C0.338647 31.6794 0 30.8552 0 29.9957C0 29.1363 0.338647 28.3121 0.941442 27.7043C1.54424 27.0966 2.3618 26.7552 3.21429 26.7552H39.4629C38.827 25.2836 38.5245 23.6877 38.5773 22.0834C38.6301 20.4792 39.0369 18.907 39.7681 17.4811C40.4992 16.0552 41.5364 14.8116 42.8042 13.8405C44.0719 12.8695 45.5384 12.1956 47.097 11.8677C48.6556 11.5398 50.267 11.5662 51.8142 11.945C53.3614 12.3238 54.8054 13.0454 56.0412 14.0575C57.277 15.0695 58.2735 16.3465 58.9583 17.7956C59.6431 19.2447 59.999 20.8294 60 22.4345Z" fill="url(#paint1_linear_21609_15454)"/>
</g>
</g>
<defs>
<linearGradient id="paint0_linear_21609_15454" x1="30" y1="3" x2="30" y2="57" gradientUnits="userSpaceOnUse">
<stop stop-color="#86FFAE"/>
<stop offset="1" stop-color="#86FFAE" stop-opacity="0"/>
</linearGradient>
<linearGradient id="paint1_linear_21609_15454" x1="30" y1="3" x2="30" y2="57" gradientUnits="userSpaceOnUse">
<stop stop-color="#86FFAE"/>
<stop offset="1" stop-color="#86FFAE" stop-opacity="0"/>
</linearGradient>
</defs>
</svg>
