<svg width="60" height="60" viewBox="0 0 60 60" fill="none" xmlns="http://www.w3.org/2000/svg">
<path d="M58.2175 31.7084C57.9834 31.7081 57.7517 31.6618 57.5356 31.5722C57.3194 31.4825 57.1231 31.3513 56.9578 31.1859C56.7924 31.0206 56.6614 30.8244 56.5721 30.6085C56.4827 30.3926 56.4369 30.1612 56.4372 29.9277H56.4093C56.1469 22.9768 53.2436 16.386 48.2887 11.4932C43.3338 6.6004 36.6986 3.77222 29.7301 3.58277V3.56139C29.4813 3.5618 29.2352 3.51031 29.0076 3.41022C28.7799 3.31014 28.5758 3.16368 28.4082 2.98023C28.2406 2.79678 28.1133 2.58041 28.0345 2.34499C27.9557 2.10957 27.927 1.8603 27.9504 1.61319C27.9738 1.36608 28.0488 1.12657 28.1704 0.910051C28.292 0.693529 28.4577 0.504771 28.6567 0.355889C28.8557 0.207008 29.0838 0.101291 29.3262 0.0455246C29.5686 -0.0102421 29.82 -0.0148274 30.0643 0.032063C37.8487 0.30428 45.2452 3.49033 50.7826 8.95646C56.3199 14.4226 59.5922 21.7682 59.9486 29.5322C59.9814 29.6644 59.9987 29.8 60 29.9362C60.0003 30.1698 59.9545 30.4011 59.8651 30.617C59.7758 30.8329 59.6448 31.0291 59.4794 31.1945C59.3141 31.3598 59.1178 31.4911 58.9016 31.5807C58.6855 31.6704 58.4537 31.7166 58.2197 31.7169L58.2175 31.7084ZM45.0418 30.9965C45.0333 34.1572 44.0863 37.2445 42.3203 39.8684C40.5542 42.4923 38.0485 44.5351 35.1196 45.7388C32.1906 46.9425 28.9699 47.253 25.8641 46.6312C22.7584 46.0094 19.907 44.4832 17.6701 42.2452C15.4332 40.0073 13.9112 37.1581 13.2964 34.0576C12.6815 30.957 13.0013 27.7441 14.2155 24.8248C15.4296 21.9056 17.4836 19.4108 20.118 17.6557C22.7524 15.9006 25.849 14.9638 29.0166 14.9638C33.2713 14.9695 37.3496 16.661 40.3547 19.6663C43.3598 22.6716 45.0458 26.7448 45.0418 30.9901V30.9965ZM12.788 17.621L8.50318 13.3456C8.13773 12.9389 7.94221 12.408 7.95675 11.8619C7.97128 11.3158 8.19477 10.796 8.58134 10.4092C8.96791 10.0224 9.48821 9.79793 10.0354 9.78188C10.5827 9.76583 11.1153 9.95942 11.524 10.3229L15.8088 14.5983C16.1742 15.005 16.3697 15.5359 16.3552 16.082C16.3407 16.6281 16.1172 17.1479 15.7306 17.5347C15.344 17.9215 14.8237 18.146 14.2765 18.162C13.7293 18.1781 13.1966 17.9845 12.788 17.621ZM10.3392 30.8362C10.3392 31.1169 10.2838 31.3949 10.1761 31.6543C10.0685 31.9136 9.91066 32.1493 9.71172 32.3478C9.51278 32.5463 9.2766 32.7037 9.01668 32.8112C8.75675 32.9186 8.47816 32.9739 8.19682 32.9739H2.1424C1.5742 32.9739 1.02927 32.7487 0.627494 32.3478C0.225716 31.9469 0 31.4031 0 30.8362C0 30.2692 0.225716 29.7255 0.627494 29.3246C1.02927 28.9237 1.5742 28.6985 2.1424 28.6985H8.19682C8.76427 28.6991 9.30833 28.9242 9.70958 29.3246C10.1108 29.725 10.3365 30.2678 10.3371 30.8341L10.3392 30.8362ZM12.788 44.0514C13.1966 43.6879 13.7293 43.4943 14.2765 43.5104C14.8237 43.5264 15.344 43.7509 15.7306 44.1377C16.1172 44.5245 16.3407 45.0443 16.3552 45.5904C16.3697 46.1365 16.1742 46.6674 15.8088 47.0741L11.524 51.3495C11.3294 51.566 11.0927 51.7406 10.8282 51.8627C10.5636 51.9848 10.277 52.0517 9.98563 52.0595C9.6943 52.0672 9.40446 52.0155 9.13383 51.9076C8.8632 51.7997 8.61748 51.6379 8.4117 51.432C8.20592 51.226 8.04441 50.9804 7.93704 50.7101C7.82968 50.4397 7.77871 50.1504 7.78728 49.8597C7.79584 49.569 7.86375 49.2832 7.98684 49.0196C8.10994 48.756 8.28563 48.5203 8.50318 48.3268L12.788 44.0514ZM29.0166 49.5239C29.298 49.5239 29.5766 49.5792 29.8365 49.6866C30.0964 49.794 30.3326 49.9515 30.5315 50.15C30.7305 50.3485 30.8883 50.5842 30.996 50.8435C31.1036 51.1029 31.159 51.3809 31.159 51.6616V57.7112C31.1798 58.004 31.14 58.2978 31.042 58.5745C30.944 58.8512 30.79 59.1048 30.5895 59.3195C30.389 59.5342 30.1464 59.7054 29.8767 59.8225C29.607 59.9396 29.3161 60 29.022 60C28.7279 60 28.4369 59.9396 28.1673 59.8225C27.8976 59.7054 27.655 59.5342 27.4545 59.3195C27.254 59.1048 27.1 58.8512 27.002 58.5745C26.904 58.2978 26.8642 58.004 26.885 57.7112V51.6552C26.8861 51.0908 27.1108 50.5498 27.5102 50.1501C27.9095 49.7505 28.451 49.5246 29.0166 49.5218V49.5239ZM45.2474 44.0514L49.5322 48.3268C49.7498 48.5203 49.9255 48.756 50.0486 49.0196C50.1717 49.2832 50.2396 49.569 50.2481 49.8597C50.2567 50.1504 50.2057 50.4397 50.0984 50.7101C49.991 50.9804 49.8295 51.226 49.6237 51.432C49.4179 51.6379 49.1722 51.7997 48.9016 51.9076C48.631 52.0155 48.3411 52.0672 48.0498 52.0595C47.7585 52.0517 47.4718 51.9848 47.2073 51.8627C46.9428 51.7406 46.706 51.566 46.5115 51.3495L42.2267 47.0741C42.0091 46.8806 41.8334 46.6449 41.7103 46.3813C41.5872 46.1177 41.5193 45.8318 41.5108 45.5412C41.5022 45.2505 41.5532 44.9611 41.6605 44.6908C41.7679 44.4205 41.9294 44.1748 42.1352 43.9689C42.341 43.763 42.5867 43.6012 42.8573 43.4933C43.1279 43.3854 43.4178 43.3337 43.7091 43.3414C44.0004 43.3491 44.2871 43.4161 44.5516 43.5382C44.8161 43.6602 45.0529 43.8349 45.2474 44.0514ZM48.9602 29.3954C48.9602 29.3355 48.9731 29.2778 48.9774 29.218H48.8767C48.4547 24.4448 46.3226 19.9833 42.8713 16.6515C39.4199 13.3197 34.8807 11.3407 30.0857 11.0775V11.0283C29.8118 11.008 29.5452 10.9303 29.3033 10.8004C29.0614 10.6705 28.8496 10.4913 28.6817 10.2743C28.5138 10.0574 28.3935 9.80769 28.3286 9.54135C28.2637 9.27501 28.2557 8.99803 28.3051 8.72841C28.3546 8.45879 28.4603 8.20256 28.6154 7.97637C28.7706 7.75018 28.9717 7.5591 29.2057 7.41553C29.4397 7.27196 29.7013 7.17913 29.9737 7.14305C30.246 7.10698 30.5228 7.12848 30.7863 7.20615C36.356 7.85429 41.5509 10.3347 45.5509 14.2559C49.551 18.1771 52.1284 23.3158 52.8765 28.861C52.8937 28.9892 52.9065 29.1068 52.9172 29.218H52.8572C52.8667 29.2767 52.8731 29.336 52.8765 29.3954C52.8766 29.652 52.826 29.9061 52.7276 30.1432C52.6292 30.3803 52.485 30.5957 52.3031 30.7772C52.1213 30.9587 51.9054 31.1026 51.6678 31.2008C51.4302 31.299 51.1756 31.3496 50.9184 31.3496C50.6612 31.3496 50.4065 31.299 50.1689 31.2008C49.9313 31.1026 49.7155 30.9587 49.5336 30.7772C49.3518 30.5957 49.2076 30.3803 49.1092 30.1432C49.0108 29.9061 48.9602 29.652 48.9602 29.3954Z" fill="url(#paint0_linear_23298_16089)"/>
<defs>
<linearGradient id="paint0_linear_23298_16089" x1="30" y1="0" x2="30" y2="60" gradientUnits="userSpaceOnUse">
<stop stop-color="#86FFAE"/>
<stop offset="1" stop-color="#86FFAE" stop-opacity="0"/>
</linearGradient>
</defs>
</svg>
