<svg width="60" height="60" viewBox="0 0 60 60" fill="none" xmlns="http://www.w3.org/2000/svg">
<path d="M57.4204 51.1114V60H3.57962V51.1114H57.4204ZM34.9867 0.00222251V35.2854L35.7697 34.5121C36.1062 34.1789 36.5625 33.9918 37.0383 33.9918C37.5141 33.9918 37.9704 34.1789 38.3069 34.5121L40.5278 36.712C40.8642 37.0453 41.0531 37.4973 41.0531 37.9686C41.0531 38.4399 40.8642 38.8919 40.5278 39.2252L31.9627 47.7116C31.7732 47.8999 31.5433 48.0437 31.2901 48.1322C31.0369 48.2206 30.7669 48.2516 30.5 48.2227C30.2335 48.2512 29.9639 48.2201 29.7111 48.1317C29.4583 48.0432 29.2288 47.8996 29.0396 47.7116L20.4722 39.2252C20.1358 38.8919 19.9469 38.4399 19.9469 37.9686C19.9469 37.4973 20.1358 37.0453 20.4722 36.712L22.6931 34.5121C22.8598 34.3468 23.0577 34.2156 23.2756 34.1262C23.4934 34.0367 23.727 33.9907 23.9628 33.9907C24.1987 33.9907 24.4322 34.0367 24.6501 34.1262C24.868 34.2156 25.0659 34.3468 25.2326 34.5121L26.0133 35.2876V0H34.9867V0.00222251ZM15.6938 6.66864V38.3964L15.8508 38.5519C16.0177 38.717 16.1501 38.9131 16.2404 39.1289C16.3307 39.3447 16.3772 39.576 16.3772 39.8096C16.3772 40.0433 16.3307 40.2746 16.2404 40.4904C16.1501 40.7062 16.0177 40.9023 15.8508 41.0674L13.6299 43.2673C13.2934 43.6004 12.837 43.7876 12.3613 43.7876C11.8855 43.7876 11.4292 43.6004 11.0926 43.2673L2.52524 34.7809C2.18892 34.4476 2 33.9956 2 33.5243C2 33.053 2.18892 32.601 2.52524 32.2677L4.74617 30.0678C4.91285 29.9025 5.11078 29.7714 5.32865 29.6819C5.54653 29.5924 5.78006 29.5464 6.01591 29.5464C6.25176 29.5464 6.4853 29.5924 6.70317 29.6819C6.92105 29.7714 7.11898 29.9025 7.28566 30.0678L8.06635 30.8433V6.66642H15.6938V6.66864ZM52.9336 6.66864V30.8411L53.7166 30.0678C54.0531 29.7346 54.5094 29.5475 54.9852 29.5475C55.461 29.5475 55.9173 29.7346 56.2538 30.0678L58.4748 32.2677C58.8111 32.601 59 33.053 59 33.5243C59 33.9956 58.8111 34.4476 58.4748 34.7809L49.9096 43.2673C49.7429 43.4326 49.545 43.5637 49.3271 43.6532C49.1092 43.7426 48.8757 43.7887 48.6398 43.7887C48.404 43.7887 48.1705 43.7426 47.9526 43.6532C47.7347 43.5637 47.5368 43.4326 47.3701 43.2673L45.1492 41.0674C44.9823 40.9023 44.8499 40.7062 44.7596 40.4904C44.6693 40.2746 44.6228 40.0433 44.6228 39.8096C44.6228 39.576 44.6693 39.3447 44.7596 39.1289C44.8499 38.9131 44.9823 38.717 45.1492 38.5519L45.3062 38.3964V6.66864H52.9336Z" fill="url(#paint0_linear_23298_16097)"/>
<defs>
<linearGradient id="paint0_linear_23298_16097" x1="30.5" y1="0" x2="30.5" y2="60" gradientUnits="userSpaceOnUse">
<stop stop-color="#86FFAE"/>
<stop offset="1" stop-color="#86FFAE" stop-opacity="0"/>
</linearGradient>
</defs>
</svg>
